<svg xmlns="http://www.w3.org/2000/svg" width="512" height="512"><defs><path id="a" d="M10.253 23.335h84.531V70.19H10.253z"/></defs><circle cx="256" cy="256" r="256" data-name="Ellipse 8" style="display:inline;fill:#dd0031;stroke-width:5.0355"/><g aria-label="0.0.0" style="font-size:40px;line-height:1;letter-spacing:-3px;word-spacing:0;white-space:pre;shape-inside:url(#a);fill:#fff" transform="matrix(5.0355 0 0 5.0355 -7.95 51.32)"><path d="M32.129 40.784q0 3.203-.39 5.508-.391 2.305-1.446 4.18-1.328 2.304-3.438 3.554-2.109 1.25-4.687 1.25-2.969 0-5.332-1.68-2.344-1.679-3.535-4.648-.606-1.62-.899-3.574-.273-1.973-.273-4.258 0-2.949.312-5.312.313-2.364.977-4.063 1.152-2.812 3.34-4.277 2.207-1.484 5.254-1.484 2.011 0 3.652.664 1.64.644 2.871 1.914 1.25 1.25 2.11 3.105 1.484 3.223 1.484 9.121zm-5.352-.39q0-3.575-.43-5.84-.429-2.285-1.445-3.438-1.015-1.172-2.812-1.172-2.578 0-3.594 2.598-.996 2.598-.996 8.008 0 3.672.43 6.015.43 2.344 1.445 3.555 1.016 1.192 2.754 1.192 1.797 0 2.812-1.25 1.016-1.25 1.426-3.575.41-2.324.41-6.093zM37.313 55.315q-1.211 0-2.09-.78-.88-.782-.88-2.188 0-1.192.84-2.051.84-.86 2.07-.86 1.231 0 2.09.86.88.84.88 2.05 0 1.387-.88 2.188-.859.781-2.03.781zM62.418 40.784q0 3.203-.39 5.508-.391 2.305-1.446 4.18-1.328 2.304-3.437 3.554-2.11 1.25-4.688 1.25-2.969 0-5.332-1.68-2.344-1.679-3.535-4.648-.606-1.62-.899-3.574-.273-1.973-.273-4.258 0-2.949.312-5.312.313-2.364.977-4.063 1.152-2.812 3.34-4.277 2.207-1.484 5.254-1.484 2.011 0 3.652.664 1.64.644 2.871 1.914 1.25 1.25 2.11 3.105 1.484 3.223 1.484 9.121zm-5.352-.39q0-3.575-.43-5.84-.429-2.285-1.445-3.438-1.015-1.172-2.812-1.172-2.578 0-3.594 2.598-.996 2.598-.996 8.008 0 3.672.43 6.015.43 2.344 1.445 3.555 1.016 1.192 2.754 1.192 1.797 0 2.812-1.25 1.016-1.25 1.426-3.575.41-2.324.41-6.093zM67.602 55.315q-1.211 0-2.09-.78-.88-.782-.88-2.188 0-1.192.84-2.051.84-.86 2.071-.86 1.23 0 2.09.86.879.84.879 2.05 0 1.387-.88 2.188-.859.781-2.03.781zM92.707 40.784q0 3.203-.39 5.508-.391 2.305-1.446 4.18-1.328 2.304-3.437 3.554-2.11 1.25-4.688 1.25-2.969 0-5.332-1.68-2.344-1.679-3.535-4.648-.606-1.62-.899-3.574-.273-1.973-.273-4.258 0-2.949.313-5.312.312-2.364.976-4.063 1.152-2.812 3.34-4.277 2.207-1.484 5.254-1.484 2.012 0 3.652.664 1.64.644 2.871 1.914 1.25 1.25 2.11 3.105 1.484 3.223 1.484 9.121zm-5.352-.39q0-3.575-.43-5.84-.429-2.285-1.445-3.438-1.015-1.172-2.812-1.172-2.578 0-3.594 2.598-.996 2.598-.996 8.008 0 3.672.43 6.015.43 2.344 1.445 3.555 1.016 1.192 2.754 1.192 1.797 0 2.813-1.25 1.015-1.25 1.425-3.575.41-2.324.41-6.093z" style="font-family:&quot;Arial Rounded MT Bold&quot;;-inkscape-font-specification:&quot;Arial Rounded MT Bold, &quot;"/></g></svg>